# xmcd
# 
# Track frame offsets:
#     150
#     10885
#     22040
#     37433
#     48170
#     60068
#     70912
#     83015
#     96250
#     107922
#     118363
# 
# Disc length: 1751
# 
# Revision: 5
# Processed by: cddbd v1.5.2PL0 Copyright (c) Steve Scherf et al.
# Submitted via: fre:ac v1.0.31
# 
DISCID=9106d50b
DTITLE=The Secret Sisters - The Secret Sisters
DYEAR=2010
DGENRE=Folk
TTITLE0=Tennessee Me
TTITLE1=Why Baby Why
TTITLE2=The One I Love Is Gone
TTITLE3=My Heart Skips A Beat
TTITLE4=Something Stupid
TTITLE5=I've Got A Feeling
TTITLE6=Do You Love An Apple
TTITLE7=All About You
TTITLE8=Waste The Day
TTITLE9=Why Don't You Love Me
TTITLE10=House Of Gold
EXTD=YEAR: 2010
EXTT0=
EXTT1=
EXTT2=
EXTT3=
EXTT4=
EXTT5=
EXTT6=
EXTT7=
EXTT8=
EXTT9=
EXTT10=
PLAYORDER=
